
<svg width="161" height="156" viewBox="0 0 161 156" fill="none" xmlns="http://www.w3.org/2000/svg">
<rect width="120" height="120" transform="translate(20 7)" fill="white"/>
<path d="M81.631 124.121C113.867 124.121 140 97.9023 140 65.5603C140 33.2184 113.867 7 81.631 7C49.3947 7 23.262 33.2184 23.262 65.5603C23.262 97.9023 49.3947 124.121 81.631 124.121Z" fill="#EAEEF9"/>
<path d="M72.5345 32.0972L117.891 69.9966C120.544 72.1514 120.923 76.0808 118.649 78.7426L84.4105 119.811C82.2627 122.473 78.3462 122.853 75.693 120.571L22.2513 75.954C19.5981 73.7992 19.2191 69.8699 21.4932 67.208L48.909 34.252L72.5345 32.0972Z" fill="#E1EAF2"/>
<path d="M72.5345 32.0972L64.3224 42.1107C62.9327 43.7585 60.4059 44.012 58.6371 42.491L48.7826 34.252L72.5345 32.0972Z" fill="#CED7E2"/>
<g filter="url(#filter0_d_862_11672)">
<path d="M128.503 85.7142L124.713 88.376L79.1042 120.698C75.9457 122.98 71.5238 122.219 69.3761 119.051L23.8937 54.406C21.6196 51.2371 22.3776 46.8007 25.5361 44.6459L65.2069 16.6333L91.7382 21.1964L126.229 70.1235L130.272 75.8274C132.42 79.123 131.662 83.4326 128.503 85.7142Z" fill="#F0F5FA"/>
</g>
<path d="M91.7383 21.1964L79.9887 29.689C77.9672 31.21 75.0614 30.703 73.5453 28.5482L65.2069 16.6333H65.3333L91.7383 21.1964Z" fill="#CED7E2"/>
<path d="M128.503 85.7143L124.713 88.3761V70.1235H126.103L130.145 75.8275C132.42 79.1231 131.662 83.4327 128.503 85.7143Z" fill="#CED7E2"/>
<g filter="url(#filter1_d_862_11672)">
<path d="M138.863 49.9697L118.901 113.854C117.764 117.53 113.848 119.684 110.184 118.417L52.4465 100.291C48.7826 99.1502 46.7612 95.2208 47.8983 91.4182L71.3975 16.1263C72.5345 12.4505 76.4511 10.2957 80.1149 11.5632L126.482 26.0132" fill="#F0F5FA"/>
</g>
<path opacity="0.5" d="M129.766 53.6456L121.302 80.7709C120.796 82.292 119.28 83.1792 117.764 82.6722L66.5966 66.5745C65.0805 66.0674 64.1961 64.5464 64.7015 63.0254L73.1662 35.9C73.6716 34.379 75.1877 33.4917 76.7038 33.9987L127.871 50.0964C129.387 50.4767 130.272 52.1245 129.766 53.6456Z" fill="#CED7E2"/>
<path d="M138.863 49.9697L124.966 45.6601C122.565 44.8996 121.175 42.3645 121.933 39.8294L126.229 25.8865H126.355L138.863 49.9697Z" fill="#E6EDF5"/>
<path d="M119.659 41.3502L104.246 39.8292C101.593 39.5757 99.5713 37.1674 99.9503 34.3788L101.593 18.9148H101.719L119.659 41.3502Z" fill="#CED7E2"/>
<g filter="url(#filter2_d_862_11672)">
<path d="M119.659 36.7873V108.15C119.659 112.333 116.374 115.628 112.205 115.628H47.6456C43.4764 115.628 40.1915 112.333 40.1915 108.15V23.8584C40.1915 19.6755 43.6027 16.3799 47.6456 16.3799H99.3186L119.659 36.7873Z" fill="white"/>
</g>
<path d="M119.659 36.7873L104.119 36.914C101.34 36.914 99.1921 34.7592 99.1921 31.9706V16.3799H99.3185L119.659 36.7873Z" fill="#E1EAF2"/>
<path d="M105.383 75.4471H56.2366C55.0996 75.4471 54.2152 74.5598 54.2152 73.419V45.0261C54.2152 43.8853 55.0996 42.998 56.2366 42.998H105.383C106.52 42.998 107.404 43.8853 107.404 45.0261V73.2922C107.531 74.433 106.52 75.4471 105.383 75.4471Z" fill="#E6EDF5"/>
<path d="M82.6417 71.0107H62.1747L72.4082 59.3494L82.6417 71.0107Z" fill="#CED7E2"/>
<path d="M99.6976 71.0108H70.134L84.9158 54.2793L99.6976 71.0108Z" fill="white"/>
<path d="M69.8815 55.1664C72.0445 55.1664 73.798 53.4071 73.798 51.237C73.798 49.0669 72.0445 47.3076 69.8815 47.3076C67.7185 47.3076 65.965 49.0669 65.965 51.237C65.965 53.4071 67.7185 55.1664 69.8815 55.1664Z" fill="#CED7E2"/>
<path d="M106.394 85.4607H55.7313C54.9732 85.4607 54.3416 84.8269 54.3416 84.0664C54.3416 83.3059 54.9732 82.6721 55.7313 82.6721H106.394C107.152 82.6721 107.783 83.3059 107.783 84.0664C107.783 84.8269 107.152 85.4607 106.394 85.4607Z" fill="#CED7E2"/>
<path d="M106.394 93.3193H55.7313C54.9732 93.3193 54.3416 92.6856 54.3416 91.9251C54.3416 91.1645 54.9732 90.5308 55.7313 90.5308H106.394C107.152 90.5308 107.783 91.1645 107.783 91.9251C107.783 92.6856 107.152 93.3193 106.394 93.3193Z" fill="#CED7E2"/>
<path d="M80.7466 99.7839C80.7466 100.544 80.1149 101.178 79.3568 101.178H55.7313C54.9733 101.178 54.3416 100.544 54.3416 99.7839C54.3416 99.0234 54.9733 98.3896 55.7313 98.3896H79.3568C80.1149 98.3896 80.7466 99.0234 80.7466 99.7839Z" fill="#CED7E2"/>
<path d="M81.7573 27.7876H55.7313C54.9733 27.7876 54.3416 27.1538 54.3416 26.3933C54.3416 25.6328 54.9733 24.999 55.7313 24.999H81.7573C82.5153 24.999 83.147 25.6328 83.147 26.3933C83.147 27.1538 82.5153 27.7876 81.7573 27.7876Z" fill="#CED7E2"/>
<path d="M67.2282 35.6465H55.7313C54.9732 35.6465 54.3416 35.0127 54.3416 34.2522C54.3416 33.4917 54.9732 32.8579 55.7313 32.8579H67.2282C67.9863 32.8579 68.618 33.4917 68.618 34.2522C68.4916 35.0127 67.9863 35.6465 67.2282 35.6465Z" fill="#CED7E2"/>
<g filter="url(#filter3_d_862_11672)">
<path d="M97 110.147C97 111.519 96.8046 112.793 96.5115 114.066C96.3161 114.85 96.1207 115.536 95.8276 116.222C94.1667 120.533 90.7471 124.061 86.4483 125.824C86.3506 125.922 86.2529 125.922 86.1552 125.922C85.8621 126.02 85.569 126.118 85.1782 126.216C83.5172 126.804 81.7586 127 80 127C70.6207 127 63 119.357 63 109.951C63 100.545 70.6207 93 80 93C89.3793 93.098 97 100.741 97 110.147Z" fill="url(#paint0_linear_862_11672)"/>
</g>
<g clip-path="url(#clip0_862_11672)">
<path d="M75.3333 100.5C74.0464 100.5 73 101.565 73 102.875V117.125C73 118.435 74.0464 119.5 75.3333 119.5H84.6667C85.9536 119.5 87 118.435 87 117.125V106.438H82.3333C81.688 106.438 81.1667 105.907 81.1667 105.25V100.5H75.3333ZM82.3333 100.5V105.25H87L82.3333 100.5ZM77.0833 110H82.9167C83.2375 110 83.5 110.267 83.5 110.594C83.5 110.92 83.2375 111.188 82.9167 111.188H77.0833C76.7625 111.188 76.5 110.92 76.5 110.594C76.5 110.267 76.7625 110 77.0833 110ZM77.0833 112.375H82.9167C83.2375 112.375 83.5 112.642 83.5 112.969C83.5 113.295 83.2375 113.562 82.9167 113.562H77.0833C76.7625 113.562 76.5 113.295 76.5 112.969C76.5 112.642 76.7625 112.375 77.0833 112.375ZM77.0833 114.75H82.9167C83.2375 114.75 83.5 115.017 83.5 115.344C83.5 115.67 83.2375 115.938 82.9167 115.938H77.0833C76.7625 115.938 76.5 115.67 76.5 115.344C76.5 115.017 76.7625 114.75 77.0833 114.75Z" fill="url(#paint1_linear_862_11672)"/>
</g>
<defs>
<filter id="filter0_d_862_11672" x="0.579102" y="5.6333" width="152.91" height="149.384" filterUnits="userSpaceOnUse" color-interpolation-filters="sRGB">
<feFlood flood-opacity="0" result="BackgroundImageFix"/>
<feColorMatrix in="SourceAlpha" type="matrix" values="0 0 0 0 0 0 0 0 0 0 0 0 0 0 0 0 0 0 127 0" result="hardAlpha"/>
<feOffset dy="11"/>
<feGaussianBlur stdDeviation="11"/>
<feColorMatrix type="matrix" values="0 0 0 0 0.397708 0 0 0 0 0.47749 0 0 0 0 0.575 0 0 0 0.18 0"/>
<feBlend mode="normal" in2="BackgroundImageFix" result="effect1_dropShadow_862_11672"/>
<feBlend mode="normal" in="SourceGraphic" in2="effect1_dropShadow_862_11672" result="shape"/>
</filter>
<filter id="filter1_d_862_11672" x="25.5818" y="0.197998" width="135.281" height="151.584" filterUnits="userSpaceOnUse" color-interpolation-filters="sRGB">
<feFlood flood-opacity="0" result="BackgroundImageFix"/>
<feColorMatrix in="SourceAlpha" type="matrix" values="0 0 0 0 0 0 0 0 0 0 0 0 0 0 0 0 0 0 127 0" result="hardAlpha"/>
<feOffset dy="11"/>
<feGaussianBlur stdDeviation="11"/>
<feColorMatrix type="matrix" values="0 0 0 0 0.397708 0 0 0 0 0.47749 0 0 0 0 0.575 0 0 0 0.18 0"/>
<feBlend mode="normal" in2="BackgroundImageFix" result="effect1_dropShadow_862_11672"/>
<feBlend mode="normal" in="SourceGraphic" in2="effect1_dropShadow_862_11672" result="shape"/>
</filter>
<filter id="filter2_d_862_11672" x="18.1915" y="5.37988" width="123.468" height="143.248" filterUnits="userSpaceOnUse" color-interpolation-filters="sRGB">
<feFlood flood-opacity="0" result="BackgroundImageFix"/>
<feColorMatrix in="SourceAlpha" type="matrix" values="0 0 0 0 0 0 0 0 0 0 0 0 0 0 0 0 0 0 127 0" result="hardAlpha"/>
<feOffset dy="11"/>
<feGaussianBlur stdDeviation="11"/>
<feColorMatrix type="matrix" values="0 0 0 0 0.397708 0 0 0 0 0.47749 0 0 0 0 0.575 0 0 0 0.18 0"/>
<feBlend mode="normal" in2="BackgroundImageFix" result="effect1_dropShadow_862_11672"/>
<feBlend mode="normal" in="SourceGraphic" in2="effect1_dropShadow_862_11672" result="shape"/>
</filter>
<filter id="filter3_d_862_11672" x="55" y="90" width="50" height="50" filterUnits="userSpaceOnUse" color-interpolation-filters="sRGB">
<feFlood flood-opacity="0" result="BackgroundImageFix"/>
<feColorMatrix in="SourceAlpha" type="matrix" values="0 0 0 0 0 0 0 0 0 0 0 0 0 0 0 0 0 0 127 0" result="hardAlpha"/>
<feOffset dy="5"/>
<feGaussianBlur stdDeviation="4"/>
<feColorMatrix type="matrix" values="0 0 0 0 0.1125 0 0 0 0 0.295916 0 0 0 0 1 0 0 0 0.22 0"/>
<feBlend mode="normal" in2="BackgroundImageFix" result="effect1_dropShadow_862_11672"/>
<feBlend mode="normal" in="SourceGraphic" in2="effect1_dropShadow_862_11672" result="shape"/>
</filter>
<linearGradient id="paint0_linear_862_11672" x1="70.9026" y1="96.1777" x2="89.6545" y2="124.654" gradientUnits="userSpaceOnUse">
<stop stop-color="#83A6FF"/>
<stop offset="1" stop-color="#5A78FF"/>
</linearGradient>
<linearGradient id="paint1_linear_862_11672" x1="93.7341" y1="126.69" x2="69.6999" y2="108.192" gradientUnits="userSpaceOnUse">
<stop offset="0.0113208" stop-color="#C2D1FF"/>
<stop offset="1" stop-color="white"/>
</linearGradient>
<clipPath id="clip0_862_11672">
<rect width="14" height="19" fill="white" transform="translate(73 100.5)"/>
</clipPath>
</defs>
</svg>
